<svg xmlns="http://www.w3.org/2000/svg" width="100" height="100" viewBox="0 0 100 100" preserveAspectRatio="xMidYMid meet">
  <path fill="#e5e5e5" d="M32.5 18.5a7,7 0 1,1 14,0a7,7 0 1,1 -14,0M53.5 18.5a7,7 0 1,1 14,0a7,7 0 1,1 -14,0M53.5 81.5a7,7 0 1,1 14,0a7,7 0 1,1 -14,0M32.5 81.5a7,7 0 1,1 14,0a7,7 0 1,1 -14,0M11.5 39.5a7,7 0 1,1 14,0a7,7 0 1,1 -14,0M74.5 39.5a7,7 0 1,1 14,0a7,7 0 1,1 -14,0M74.5 60.5a7,7 0 1,1 14,0a7,7 0 1,1 -14,0M11.5 60.5a7,7 0 1,1 14,0a7,7 0 1,1 -14,0"/>
  <path fill="#4c4c4c" d="M11.5 18.5a7,7 0 1,1 14,0a7,7 0 1,1 -14,0M74.5 18.5a7,7 0 1,1 14,0a7,7 0 1,1 -14,0M74.5 81.5a7,7 0 1,1 14,0a7,7 0 1,1 -14,0M11.5 81.5a7,7 0 1,1 14,0a7,7 0 1,1 -14,0"/>
  <path fill="#ccbf66" d="M29 29L50 29L50 50L29 50ZM36.6 42a5.5,5.5 0 1,0 10.9,0a5.5,5.5 0 1,0 -10.9,0M71 29L71 50L50 50L50 29ZM52.5 42a5.5,5.5 0 1,0 10.9,0a5.5,5.5 0 1,0 -10.9,0M71 71L50 71L50 50L71 50ZM52.5 58a5.5,5.5 0 1,0 10.9,0a5.5,5.5 0 1,0 -10.9,0M29 71L29 50L50 50L50 71ZM36.6 58a5.5,5.5 0 1,0 10.9,0a5.5,5.5 0 1,0 -10.9,0"/>
</svg>
